<svg width="68" height="16" viewBox="0 0 68 16" fill="none" xmlns="http://www.w3.org/2000/svg">
<path d="M6.55899 15.0288C5.20584 15.0288 4.03751 14.7344 3.05397 14.1455C2.0767 13.5566 1.32182 12.7329 0.789334 11.6741C0.263111 10.6154 0 9.38445 0 7.98119C0 6.57793 0.263111 5.34694 0.789334 4.28823C1.32182 3.22952 2.0767 2.40573 3.05397 1.81686C4.03751 1.228 5.20584 0.933562 6.55899 0.933562C8.1126 0.933562 9.41563 1.31883 10.4681 2.08937C11.5268 2.85991 12.2723 3.90296 12.7045 5.21852L10.1298 5.93268C9.8792 5.11202 9.45635 4.47617 8.86121 4.02512C8.26608 3.56781 7.49867 3.33915 6.55899 3.33915C5.70074 3.33915 4.98345 3.53022 4.40711 3.91236C3.83704 4.2945 3.40792 4.83325 3.11975 5.52861C2.83158 6.22398 2.68749 7.0415 2.68749 7.98119C2.68749 8.92087 2.83158 9.73839 3.11975 10.4338C3.40792 11.1291 3.83704 11.6679 4.40711 12.05C4.98345 12.4322 5.70074 12.6232 6.55899 12.6232C7.49867 12.6232 8.26608 12.3946 8.86121 11.9373C9.45635 11.4799 9.8792 10.8441 10.1298 10.0297L12.7045 10.7439C12.2723 12.0594 11.5268 13.1025 10.4681 13.873C9.41563 14.6435 8.1126 15.0288 6.55899 15.0288Z" fill="white"/>
<path d="M19.3404 15.0288C18.3193 15.0288 17.4235 14.8002 16.6529 14.3428C15.8824 13.8855 15.281 13.2559 14.8488 12.4541C14.4228 11.6459 14.2098 10.7188 14.2098 9.67262C14.2098 8.6139 14.429 7.68362 14.8675 6.88176C15.3061 6.07363 15.9106 5.44404 16.6811 4.99299C17.4517 4.54194 18.3381 4.31642 19.3404 4.31642C20.3616 4.31642 21.2574 4.54508 22.0279 5.00239C22.8047 5.4597 23.4093 6.09242 23.8415 6.90055C24.2738 7.70241 24.4899 8.62643 24.4899 9.67262C24.4899 10.7251 24.2706 11.6553 23.8321 12.4635C23.3999 13.2653 22.7953 13.8949 22.0185 14.3522C21.248 14.8033 20.3553 15.0288 19.3404 15.0288ZM19.3404 12.642C20.1611 12.642 20.7719 12.3664 21.1728 11.8151C21.58 11.2575 21.7836 10.5434 21.7836 9.67262C21.7836 8.77052 21.5769 8.0501 21.1634 7.51134C20.7562 6.97259 20.1486 6.70322 19.3404 6.70322C18.7829 6.70322 18.3256 6.82851 17.9685 7.07909C17.6114 7.32967 17.3452 7.67735 17.1698 8.12214C17.0006 8.56692 16.9161 9.08375 16.9161 9.67262C16.9161 10.581 17.1197 11.3045 17.5269 11.8433C17.9403 12.3758 18.5448 12.642 19.3404 12.642Z" fill="white"/>
<path d="M33.4724 14.7469V9.95452C33.4724 9.72273 33.4599 9.4283 33.4348 9.07122C33.4097 8.70787 33.3314 8.34453 33.1999 7.98119C33.0683 7.61784 32.8522 7.31401 32.5515 7.06969C32.2571 6.82538 31.8373 6.70322 31.2923 6.70322C31.0731 6.70322 30.8381 6.73767 30.5876 6.80658C30.337 6.87549 30.1021 7.01018 29.8828 7.21065C29.6635 7.40485 29.4819 7.69302 29.3378 8.07515C29.2 8.45729 29.1311 8.96472 29.1311 9.59744L27.6652 8.90207C27.6652 8.10021 27.828 7.34847 28.1538 6.64684C28.4795 5.94521 28.9682 5.37826 29.6197 4.94601C30.2775 4.51375 31.1044 4.29763 32.1005 4.29763C32.8961 4.29763 33.5444 4.43232 34.0456 4.70169C34.5468 4.97107 34.9352 5.31249 35.2108 5.72595C35.4927 6.13941 35.6932 6.57166 35.8122 7.02271C35.9312 7.46749 36.0033 7.87469 36.0283 8.2443C36.0534 8.61391 36.0659 8.88328 36.0659 9.05242V14.7469H33.4724ZM26.5375 14.7469V4.59833H28.8116V7.96239H29.1311V14.7469H26.5375Z" fill="white"/>
<path d="M42.8876 15.0288C41.8665 15.0288 40.9706 14.8002 40.2001 14.3428C39.4295 13.8855 38.8281 13.2559 38.3959 12.4541C37.9699 11.6459 37.7569 10.7188 37.7569 9.67262C37.7569 8.6139 37.9762 7.68362 38.4147 6.88176C38.8532 6.07363 39.4577 5.44404 40.2283 4.99299C40.9988 4.54194 41.8853 4.31642 42.8876 4.31642C43.9087 4.31642 44.8045 4.54508 45.5751 5.00239C46.3519 5.4597 46.9564 6.09242 47.3887 6.90055C47.8209 7.70241 48.037 8.62643 48.037 9.67262C48.037 10.7251 47.8178 11.6553 47.3793 12.4635C46.947 13.2653 46.3425 13.8949 45.5657 14.3522C44.7951 14.8033 43.9024 15.0288 42.8876 15.0288ZM42.8876 12.642C43.7082 12.642 44.319 12.3664 44.72 11.8151C45.1272 11.2575 45.3308 10.5434 45.3308 9.67262C45.3308 8.77052 45.124 8.0501 44.7106 7.51134C44.3034 6.97259 43.6957 6.70322 42.8876 6.70322C42.33 6.70322 41.8727 6.82851 41.5156 7.07909C41.1586 7.32967 40.8923 7.67735 40.7169 8.12214C40.5478 8.56692 40.4632 9.08375 40.4632 9.67262C40.4632 10.581 40.6668 11.3045 41.074 11.8433C41.4874 12.3758 42.092 12.642 42.8876 12.642Z" fill="white"/>
<path d="M47.7858 4.00549H50.6049L53.1107 11.5952L56.8694 0.526855H59.5319L54.5202 14.9158H51.7012L47.7858 4.00549Z" fill="white"/>
<path d="M62.1982 15.0288C61.4715 15.0288 60.8545 14.891 60.347 14.6153C59.8459 14.3334 59.4637 13.9607 59.2006 13.4971C58.9438 13.0273 58.8154 12.5105 58.8154 11.9466C58.8154 11.4768 58.8874 11.0477 59.0315 10.6593C59.1756 10.2709 59.4074 9.92946 59.7269 9.63503C60.0526 9.33433 60.488 9.08375 61.033 8.88328C61.4089 8.74546 61.8568 8.6233 62.3768 8.5168C62.8967 8.41031 63.4856 8.31007 64.1434 8.21611C64.8011 8.11587 65.5247 8.00624 66.314 7.88722L65.3931 8.39465C65.3931 7.79325 65.2491 7.3516 64.9609 7.06969C64.6727 6.78779 64.1903 6.64684 63.5138 6.64684C63.1379 6.64684 62.7464 6.73767 62.3392 6.91934C61.932 7.10102 61.6469 7.42364 61.4841 7.88722L59.1724 7.15426C59.4293 6.31481 59.9117 5.63198 60.6195 5.10576C61.3274 4.57953 62.2922 4.31642 63.5138 4.31642C64.4096 4.31642 65.2052 4.45424 65.9006 4.72988C66.5959 5.00552 67.1222 5.48163 67.4792 6.1582C67.6797 6.53407 67.7987 6.90995 67.8363 7.28582C67.8739 7.66169 67.8927 8.08142 67.8927 8.545V14.7469H65.6562V12.6608L65.9757 13.0931C65.4808 13.7759 64.9452 14.2708 64.3689 14.5778C63.7988 14.8785 63.0753 15.0288 62.1982 15.0288ZM62.7432 13.0179C63.2131 13.0179 63.6077 12.9364 63.9272 12.7736C64.253 12.6044 64.5098 12.4134 64.6978 12.2004C64.892 11.9874 65.0235 11.8088 65.0924 11.6647C65.224 11.3891 65.2992 11.0696 65.318 10.7063C65.343 10.3367 65.3556 10.0297 65.3556 9.78538L66.1073 9.97331C65.3493 10.0986 64.7354 10.2051 64.2655 10.2928C63.7957 10.3742 63.4167 10.4494 63.1285 10.5183C62.8403 10.5872 62.5866 10.6624 62.3674 10.7439C62.1168 10.8441 61.9132 10.9537 61.7566 11.0727C61.6062 11.1855 61.4935 11.3108 61.4183 11.4486C61.3494 11.5864 61.3149 11.7399 61.3149 11.9091C61.3149 12.1409 61.3713 12.3413 61.4841 12.5105C61.6031 12.6733 61.7691 12.7986 61.9821 12.8863C62.1951 12.974 62.4488 13.0179 62.7432 13.0179Z" fill="white"/>
</svg>
