<svg width="35" height="32" viewBox="0 0 35 32" fill="none" xmlns="http://www.w3.org/2000/svg">
<path d="M30.9544 13.3885H29.811V13.3332H17.0352V18.6665H25.0577C23.8873 21.7712 20.7423 23.9998 17.0352 23.9998C12.3316 23.9998 8.51798 20.4178 8.51798 15.9998C8.51798 11.5818 12.3316 7.99984 17.0352 7.99984C19.2064 7.99984 21.1817 8.76917 22.6857 10.0258L26.7008 6.2545C24.1655 4.03517 20.7743 2.6665 17.0352 2.6665C9.19581 2.6665 2.83984 8.6365 2.83984 15.9998C2.83984 23.3632 9.19581 29.3332 17.0352 29.3332C24.8746 29.3332 31.2305 23.3632 31.2305 15.9998C31.2305 15.1058 31.1326 14.2332 30.9544 13.3885Z" fill="#FFC107"/>
<path d="M4.47656 9.79384L9.14044 13.0065C10.4024 10.0718 13.4587 7.99984 17.0352 7.99984C19.2064 7.99984 21.1817 8.76917 22.6856 10.0258L26.7008 6.2545C24.1655 4.03517 20.7742 2.6665 17.0352 2.6665C11.5828 2.6665 6.85428 5.55784 4.47656 9.79384Z" fill="#FF3D00"/>
<path d="M17.0339 29.3333C20.7006 29.3333 24.0322 28.0153 26.5512 25.872L22.1577 22.38C20.6846 23.4322 18.8846 24.0013 17.0339 24C13.3417 24 10.2066 21.7886 9.02559 18.7026L4.39648 22.0526C6.74581 26.3706 11.5169 29.3333 17.0339 29.3333Z" fill="#4CAF50"/>
<path d="M30.9544 13.3888H29.811V13.3335H17.0352V18.6668H25.0577C24.4978 20.1444 23.4893 21.4356 22.1568 22.3808L22.159 22.3795L26.5524 25.8715C26.2416 26.1368 31.2305 22.6668 31.2305 16.0002C31.2305 15.1062 31.1326 14.2335 30.9544 13.3888Z" fill="#1976D2"/>
</svg>
