<svg width="45" height="45" viewBox="0 0 45 45" fill="none" xmlns="http://www.w3.org/2000/svg">
<path fill-rule="evenodd" clip-rule="evenodd" d="M13.5695 13.8474V31.2938H31.016V13.8474H13.5695ZM9.54344 7.13721C8.06107 7.13721 6.85938 8.3389 6.85938 9.82127V35.3199C6.85938 36.8023 8.06107 38.004 9.54344 38.004H35.0421C36.5244 38.004 37.7261 36.8023 37.7261 35.3199V9.82127C37.7261 8.3389 36.5245 7.13721 35.0421 7.13721H9.54344Z" fill="#48E9AE"/>
<path fill-rule="evenodd" clip-rule="evenodd" d="M22.123 9.75927L9.48007 22.4022L22.123 35.0452L34.766 22.4022L22.123 9.75927ZM24.0193 2.17412C22.972 1.12683 21.2741 1.12683 20.2268 2.17412L1.89492 20.506C0.847632 21.5532 0.847629 23.2512 1.89492 24.2985L20.2268 42.6304C21.274 43.6777 22.972 43.6777 24.0193 42.6304L42.3512 24.2985C43.3985 23.2512 43.3985 21.5533 42.3512 20.506L24.0193 2.17412Z" fill="#48E9AE"/>
</svg>
