<svg width="57" height="56" viewBox="0 0 57 56" fill="none" xmlns="http://www.w3.org/2000/svg">
<path fill-rule="evenodd" clip-rule="evenodd" d="M15.0001 29.7658C21.1663 29.7978 25.2609 35.4842 24.152 42.4937L24.1475 42.5219L22.1294 55.2779H25.8683L27.8036 43.0474C27.8245 42.8733 27.8487 42.6979 27.8762 42.5219C27.8779 42.5123 27.8796 42.5033 27.8807 42.4937C27.91 42.3081 27.9427 42.1237 27.9787 41.94C29.306 35.1673 35.0805 29.7652 41.1121 29.7652H56.0705L56.7432 25.5127H41.8467C41.8298 25.5127 41.8124 25.5127 41.795 25.5127C41.7775 25.5127 41.76 25.5127 41.7426 25.5127C35.5933 25.4814 31.5048 19.8264 32.5817 12.8438C32.585 12.8239 32.5879 12.8047 32.5912 12.7849C32.5946 12.765 32.5974 12.7458 32.6008 12.726L34.6144 0H30.8755L28.8619 12.726C28.8585 12.7458 28.8557 12.765 28.8529 12.7849C28.8495 12.8047 28.8467 12.8239 28.8433 12.8438C27.7107 19.8264 21.8322 25.4814 15.6733 25.5127C15.6559 25.5127 15.6384 25.5127 15.621 25.5127C15.6035 25.5127 15.5861 25.5127 15.5692 25.5127H0.672684L0 29.7652H14.8965C14.9139 29.7652 14.9308 29.7652 14.9488 29.7652C14.9663 29.7652 14.9832 29.7652 15.0006 29.7652L15.0001 29.7658Z" fill="url(#paint0_linear_1394_3952)"/>
<defs>
<linearGradient id="paint0_linear_1394_3952" x1="25.2761" y1="56.491" x2="44.7858" y2="5.86131" gradientUnits="userSpaceOnUse">
<stop stop-color="#FF266F"/>
<stop offset="0.458824" stop-color="#FF7051"/>
<stop offset="1" stop-color="#FFBB33"/>
</linearGradient>
</defs>
</svg>
